<svg version="1.1" xmlns="http://www.w3.org/2000/svg" viewBox="0 0 654.283332824707 306" width="1308.566665649414" height="612" filter="invert(93%) hue-rotate(180deg)">
  <!-- svg-source:excalidraw -->
  
  <defs>
    <style class="style-fonts">
      @font-face {
        font-family: "Virgil";
        src: url("https://excalidraw.com/Virgil.woff2");
      }
      @font-face {
        font-family: "Cascadia";
        src: url("https://excalidraw.com/Cascadia.woff2");
      }
    </style>
  </defs>
  <g stroke-linecap="round" transform="translate(209.125 166) rotate(0 108 65)"><path d="M32 0 M32 0 C92.84 -2.13, 155.46 0.3, 184 0 M32 0 C87.88 -0.06, 142.87 -1.05, 184 0 M184 0 C206.05 1.98, 216.94 11.23, 216 32 M184 0 C204.1 -1.16, 214.21 10.23, 216 32 M216 32 C215.59 49.7, 215.56 69.6, 216 98 M216 32 C215.67 51.81, 214.81 72.04, 216 98 M216 98 C217.05 120.05, 205.55 129.72, 184 130 M216 98 C215.13 121.07, 207.01 129.57, 184 130 M184 130 C129.76 130.2, 72.45 129.51, 32 130 M184 130 C138.36 130.34, 93.97 130.49, 32 130 M32 130 C10.51 130.84, 0.71 119.51, 0 98 M32 130 C10.74 128.81, 0.31 117.56, 0 98 M0 98 C-1.37 72.98, 0.4 49.3, 0 32 M0 98 C-0.32 83.36, 1.12 67.38, 0 32 M0 32 C1.37 9.96, 11.54 1.47, 32 0 M0 32 C0.58 9.5, 12.01 1.5, 32 0" stroke="#000000" stroke-width="1" fill="none"></path></g><g transform="translate(10 218.5) rotate(0 23.125 12.5)"><text x="0" y="0" font-family="Virgil, Segoe UI Emoji" font-size="20px" fill="#000000" text-anchor="start" style="white-space: pre;" direction="ltr" dominant-baseline="text-before-edge">input</text></g><g transform="translate(578 218.5) rotate(0 33.141666412353516 12.5)"><text x="0" y="0" font-family="Virgil, Segoe UI Emoji" font-size="20px" fill="#000000" text-anchor="start" style="white-space: pre;" direction="ltr" dominant-baseline="text-before-edge">output</text></g><g stroke-opacity="0" fill-opacity="0" transform="translate(288.25833320617676 10) rotate(0 28.866666793823242 12.5)"><text x="0" y="0" font-family="Virgil, Segoe UI Emoji" font-size="20px" fill="#000000" text-anchor="start" style="white-space: pre;" direction="ltr" dominant-baseline="text-before-edge">state</text></g><g stroke-linecap="round"><g transform="translate(68 230.1723676183958) rotate(0 58.48481780588628 0.8276323816041895)"><path d="M-1.02 0.84 C18.61 0.98, 98.25 0.38, 117.99 0.04 M0.65 0.23 C20.09 0.66, 97.75 1.72, 117.03 1.6" stroke="#000000" stroke-width="1" fill="none"></path></g><g transform="translate(68 230.1723676183958) rotate(0 58.48481780588628 0.8276323816041895)"><path d="M90.18 11.69 C97.98 7.75, 105 5.7, 116.33 1.49 M89.29 10.88 C98.26 8.86, 106.11 4.63, 116.41 1.93" stroke="#000000" stroke-width="1" fill="none"></path></g><g transform="translate(68 230.1723676183958) rotate(0 58.48481780588628 0.8276323816041895)"><path d="M90.29 -8.84 C97.92 -6.19, 104.9 -1.66, 116.33 1.49 M89.4 -9.64 C98.18 -5.45, 105.99 -3.48, 116.41 1.93" stroke="#000000" stroke-width="1" fill="none"></path></g></g><mask></mask><g stroke-linecap="round"><g transform="translate(445 232.8310087054968) rotate(0 61.728035490741036 1.1689912945032006)"><path d="M-0.71 -1.13 C19.6 -0.7, 101.24 2.98, 121.98 3.47 M1.12 0.89 C21.78 0.88, 103.78 1.32, 124.16 1.59" stroke="#000000" stroke-width="1" fill="none"></path></g><g transform="translate(445 232.8310087054968) rotate(0 61.728035490741036 1.1689912945032006)"><path d="M94 9.92 C105.44 9.93, 111.54 6.49, 124.15 2.33 M96.67 10.81 C102.57 8.12, 109 6.25, 124.55 1.75" stroke="#000000" stroke-width="1" fill="none"></path></g><g transform="translate(445 232.8310087054968) rotate(0 61.728035490741036 1.1689912945032006)"><path d="M94.17 -10.6 C105.72 -4.17, 111.75 -1.19, 124.15 2.33 M96.85 -9.71 C102.87 -7.33, 109.25 -4.13, 124.55 1.75" stroke="#000000" stroke-width="1" fill="none"></path></g></g><mask></mask><g stroke-linecap="round"><g stroke-opacity="0" fill-opacity="0" transform="translate(318.0892909645597 43) rotate(0 -0.964290964559666 54.15304149091243)"><path d="M-0.19 -0.57 C-0.14 17.38, -0.18 90.79, -0.44 108.88 M-1.75 1.75 C-1.72 19.87, -0.75 89.3, -0.91 107.21" stroke="#000000" stroke-width="1" fill="none"></path></g><g stroke-opacity="0" fill-opacity="0" transform="translate(318.0892909645597 43) rotate(0 -0.964290964559666 54.15304149091243)"><path d="M9.09 29.15 C8.78 20.23, 4.78 15.97, -0.94 -0.83 M9.21 28.03 C5.99 17.15, 1.32 4.18, -0.38 0.26" stroke="#000000" stroke-width="1" fill="none"></path></g><g stroke-opacity="0" fill-opacity="0" transform="translate(318.0892909645597 43) rotate(0 -0.964290964559666 54.15304149091243)"><path d="M-11.43 29.14 C-6.84 20.25, -5.93 16, -0.94 -0.83 M-11.31 28.01 C-6.34 17.17, -2.83 4.2, -0.38 0.26" stroke="#000000" stroke-width="1" fill="none"></path></g><g stroke-opacity="0" fill-opacity="0" transform="translate(318.0892909645597 43) rotate(0 -0.964290964559666 54.15304149091243)"><path d="M-12.23 80.59 C-7.06 85.17, -6.14 94.38, -1.66 106.95 M-12.11 79.46 C-7.56 91.09, -4.01 100.6, -1.1 108.04" stroke="#000000" stroke-width="1" fill="none"></path></g><g stroke-opacity="0" fill-opacity="0" transform="translate(318.0892909645597 43) rotate(0 -0.964290964559666 54.15304149091243)"><path d="M8.29 80.51 C8.55 85.08, 4.57 94.31, -1.66 106.95 M8.41 79.38 C4.77 91.02, 0.14 100.56, -1.1 108.04" stroke="#000000" stroke-width="1" fill="none"></path></g></g><mask></mask></svg>